<svg width="24" height="24" viewBox="0 0 24 24" fill="none" xmlns="http://www.w3.org/2000/svg">
<path d="M15.5 12.0225C15.5 12.2744 15.4004 12.4912 15.207 12.6846L10.707 17.0732C10.5547 17.2256 10.3672 17.3076 10.1445 17.3076C9.6875 17.3076 9.32422 16.9443 9.32422 16.4932C9.32422 16.2705 9.41211 16.0596 9.57617 15.8955L13.5605 12.0283L9.57617 8.15527C9.41797 7.99121 9.32422 7.78613 9.32422 7.55762C9.32422 7.10645 9.6875 6.74316 10.1445 6.74316C10.3672 6.74316 10.5547 6.8252 10.7129 6.97754L15.207 11.3662C15.4063 11.5713 15.5 11.7764 15.5 12.0225Z" fill="#69788C"/>
</svg>
