<svg width="20" height="20" viewBox="0 0 20 20" fill="none" xmlns="http://www.w3.org/2000/svg">
<path fill-rule="evenodd" clip-rule="evenodd" d="M15.3063 8.42287V4.16667H14.2178V8.42287H13.6906C13.2304 8.42287 12.8573 8.79597 12.8573 9.25621V10.8999C12.8573 11.3602 13.2304 11.7333 13.6906 11.7333H14.2178V15.5952H15.3063V11.7333H15.8335C16.2937 11.7333 16.6668 11.3602 16.6668 10.8999V9.25621C16.6668 8.79597 16.2937 8.42287 15.8335 8.42287H15.3063ZM10.5444 4.16667H9.45594V5.90056H8.92873C8.4685 5.90056 8.0954 6.27366 8.0954 6.7339V8.37761C8.0954 8.83785 8.4685 9.21094 8.92873 9.21094H9.45594V15.5952H10.5444V9.21094H11.0716C11.5318 9.21094 11.9049 8.83785 11.9049 8.37761V6.7339C11.9049 6.27366 11.5318 5.90056 11.0716 5.90056H10.5444V4.16667ZM5.78248 10.5385V4.16667H4.69404V10.5385H4.16683C3.70659 10.5385 3.3335 10.9116 3.3335 11.3718V13.009C3.3335 13.4693 3.70659 13.8424 4.16683 13.8424H4.69404V15.5904L5.78248 15.5952V13.8424H6.30969C6.76992 13.8424 7.14302 13.4693 7.14302 13.009V11.3718C7.14302 10.9116 6.76992 10.5385 6.30969 10.5385H5.78248Z" fill="#2D3540"/>
</svg>
